<svg width="49" height="49" viewBox="0 0 49 49" fill="none" xmlns="http://www.w3.org/2000/svg">
<path d="M3.5855 34.0833C2.24652 31.1659 1.5 27.9202 1.5 24.5C1.5 11.7975 11.7975 1.5 24.5 1.5C37.2025 1.5 47.5 11.7975 47.5 24.5C47.5 37.2025 37.2025 47.5 24.5 47.5C21.3061 47.5 18.2643 46.849 15.5 45.6724" stroke="white" stroke-width="3" stroke-linecap="round"/>
<path d="M13.5 31L1.5 43" stroke="white" stroke-width="3" stroke-linecap="round"/>
<path d="M17.5 36L10.5 43" stroke="white" stroke-width="3" stroke-linecap="round"/>
<path fill-rule="evenodd" clip-rule="evenodd" d="M27.499 37.7034L36.5002 12.5L10.5084 21.4627C9.58324 21.7817 9.60277 23.1485 10.528 23.4674C13.6791 24.5536 18.4365 26.4363 20.5002 28.5C22.5489 30.5487 24.4192 34.8472 25.509 37.704C25.8504 38.599 27.1768 38.6055 27.499 37.7034ZM28.0002 24.5C29.9332 24.5 31.5002 22.933 31.5002 21C31.5002 19.067 29.9332 17.5 28.0002 17.5C26.0672 17.5 24.5002 19.067 24.5002 21C24.5002 22.933 26.0672 24.5 28.0002 24.5Z" fill="white"/>
</svg>
