<svg width="49" height="50" viewBox="0 0 49 50" fill="none" xmlns="http://www.w3.org/2000/svg">
<g opacity="0.3">
<path fill-rule="evenodd" clip-rule="evenodd" d="M0 0H11V11H0V0ZM15 0H26V11H15V0ZM42 0H31V11H42V0ZM15 16H26V24.495C23.796 23.6717 21.3 23.8731 19.2278 25.1164C18.3663 25.6334 17.5981 26.2703 16.9411 27H15V16ZM42 24.3322V16H31V26.1585H34.1322L35.3963 25.3158C37.3679 24.0014 39.794 23.6682 42 24.3322ZM11 16H0V27H11V16Z" fill="white"/>
<path fill-rule="evenodd" clip-rule="evenodd" d="M27.9229 42.0429H32.8856H32.8857H37.077L40.2537 47.3374C41.1555 48.8404 42.8177 49.7181 44.5676 49.6152C47.2755 49.4559 49.2891 47.0473 48.9659 44.354L47.5723 32.7411C47.2777 30.2854 45.8642 28.1039 43.7434 26.8314C41.8101 25.6714 39.3815 25.7292 37.5055 26.9799L35.7375 28.1585H32.8857H32.8856H29.2625L27.4945 26.9799C25.6185 25.7292 23.1899 25.6714 21.2566 26.8314C19.1357 28.1039 17.7223 30.2854 17.4276 32.7411L16.0341 44.354C15.7109 47.0473 17.7245 49.4559 20.4324 49.6152C22.1823 49.7181 23.8444 48.8404 24.7463 47.3374L27.9229 42.0429Z" fill="white"/>
</g>
</svg>
