<svg width="48" height="47" viewBox="0 0 48 47" fill="none" xmlns="http://www.w3.org/2000/svg">
<path d="M13.5 4.5L15 18.5L2 18L0 21L2 35L17 33L19 47L33.5 44.5L35.5 41.5L31.5 31L45.5 29.5L47.5 26.5L29 16.5L15.5 1.5L13.5 4.5Z" fill="#9D6A1E"/>
<path d="M17 15.5L2 18L4 32L19 30L21 44L35.5 41.5L33.5 28L47.5 26.5L45.5 12L31 13.5L29 0L15.5 1.5L17 15.5Z" fill="#FFE125"/>
<path d="M28 11L19 12L22 4L28 11Z" stroke="#BF8609"/>
<path d="M23 31.75L31.5 38.75" stroke="#BF8609"/>
<path d="M30.75 31L23.75 39.5" stroke="#BF8609"/>
<circle cx="39.5" cy="20.5" r="4" stroke="#BF8609"/>
<rect x="5.57517" y="20.8859" width="8" height="8" transform="rotate(-9.43031 5.57517 20.8859)" stroke="#BF8609"/>
</svg>
