<svg width="47" height="60" viewBox="0 0 47 60" fill="none" xmlns="http://www.w3.org/2000/svg">
<path d="M19.5835 16.0583L20.4557 7.04592C20.6426 5.11467 21.8623 3.43676 23.6416 2.66312C26.7811 1.29814 30.376 3.19821 31.0166 6.56111L32.9002 16.45" stroke="#DF6C58" stroke-width="3"/>
<path d="M14.8833 16.0583L15.7555 7.04592C15.9424 5.11467 17.1621 3.43676 18.9415 2.66312C22.0809 1.29814 25.6758 3.19821 26.3164 6.56111L28.2 16.45" stroke="#DF6C58" stroke-width="3"/>
<path d="M44.65 15.275L2.35 14.8833L0 54.4416L37.2083 59.925L47 53.6583L44.65 15.275Z" fill="url(#paint0_linear_309_1043)"/>
<path fill-rule="evenodd" clip-rule="evenodd" d="M25.9524 27.0646C24.7474 26.6576 22.6235 26.0135 20.9473 25.6485C20.8646 25.6326 20.3281 25.5554 20.3281 26.252L20.3666 32.1167L20.3587 34.4667H20.3666V43.577L24.2833 44.6501L24.2833 34.4667H24.2833V29.7667C24.2833 29.0596 24.7269 28.5454 25.2379 28.7092C25.9038 28.8944 26.0339 29.5479 26.0339 30.2562V35.9407C26.0339 36.2769 26.2755 36.407 26.309 36.4235C28.7222 37.4359 30.5812 36.181 30.5812 33.056C30.5813 29.7267 29.4099 28.2485 25.9524 27.0646ZM25.0666 38.3203V40.755L28.7918 39.4421C29.5366 39.1759 30.6315 39.1171 31.2366 39.3165C31.8413 39.5136 31.7284 39.8926 30.9823 40.1595L30.6969 40.2613L30.6967 40.2612L25.0666 42.2664V44.6281L28.187 43.5071C29.2984 43.1079 30.1784 42.7927 30.8795 42.5416L30.88 42.5414L30.8807 42.5412C31.9277 42.1662 32.5757 41.9341 32.9996 41.7782L33.3386 41.6564C33.3386 41.6564 33.4525 41.6146 33.6243 41.5385C33.7318 41.4936 33.8087 41.4575 33.8844 41.4191C33.9342 41.3938 33.9836 41.3675 34.0409 41.3369C34.392 41.1511 34.7913 40.8951 35.027 40.5982C35.5162 39.9808 35.2991 39.085 33.3745 38.4761C31.664 37.8286 29.4872 37.6057 27.7092 37.8011C26.528 37.9322 25.5735 38.1734 25.0666 38.3203ZM19.5833 42.5343V40.5617L18.3095 41.0267C17.5638 41.294 16.4684 41.3489 15.8631 41.1512C15.2581 40.9542 15.3715 40.5768 16.1176 40.3081L17.0523 39.9734L17.0527 39.9736L19.5833 39.0684V36.6947C18.792 36.9752 18.0953 37.221 17.4797 37.4382L17.4796 37.4382L17.4792 37.4383L17.4792 37.4383C16.2645 37.8669 15.3654 38.1841 14.6783 38.437C14.078 38.6511 13.9294 38.7072 13.7831 38.7687L13.7583 38.7793L13.7104 38.7993C13.6721 38.8155 13.634 38.832 13.5906 38.8508L13.5905 38.8509L13.5586 38.8647L13.5656 38.8669C12.9319 39.131 12.58 39.3297 12.2254 39.5923C11.3255 40.2603 11.6546 41.4191 13.631 41.9765C15.6337 42.6363 17.6632 42.795 19.5833 42.5343Z" fill="white"/>
<defs>
<linearGradient id="paint0_linear_309_1043" x1="4.44744e-07" y1="10.9666" x2="41.9083" y2="58.3583" gradientUnits="userSpaceOnUse">
<stop stop-color="#11D1FD"/>
<stop offset="1" stop-color="#0A81C4"/>
</linearGradient>
</defs>
</svg>
